<?xml version="1.0" encoding="utf-8"?>
<!-- Generator: Adobe Illustrator 24.2.3, SVG Export Plug-In . SVG Version: 6.00 Build 0)  -->
<svg version="1.1" id="Layer_1" xmlns="http://www.w3.org/2000/svg" xmlns:xlink="http://www.w3.org/1999/xlink" x="0px" y="0px"
	 viewBox="0 0 1600 286.3" style="enable-background:new 0 0 1600 286.3;" xml:space="preserve">
<style type="text/css">
	.st0{clip-path:url(#SVGID_2_);}
	.st1{clip-path:url(#SVGID_4_);}
	.st2{fill:#000048;}
	.st3{clip-path:url(#SVGID_6_);}
	.st4{clip-path:url(#SVGID_8_);}
	.st5{fill:url(#SVGID_9_);}
	.st6{clip-path:url(#SVGID_11_);}
	.st7{fill:url(#SVGID_12_);}
	.st8{clip-path:url(#SVGID_14_);}
	.st9{fill:url(#SVGID_15_);}
	.st10{clip-path:url(#SVGID_17_);}
	.st11{fill:url(#SVGID_18_);}
</style>
<g>
	<g>
		<defs>
			<rect id="SVGID_1_" x="385.2" y="17.6" width="1214.8" height="265.5"/>
		</defs>
		<clipPath id="SVGID_2_">
			<use xlink:href="#SVGID_1_"  style="overflow:visible;"/>
		</clipPath>
		<g class="st0">
			<g>
				<defs>
					<rect id="SVGID_3_" x="385.2" y="17.6" width="1214.8" height="265.5"/>
				</defs>
				<clipPath id="SVGID_4_">
					<use xlink:href="#SVGID_3_"  style="overflow:visible;"/>
				</clipPath>
				<g class="st1">
					<path class="st2" d="M1032.6,69.6h24.1v143.8h-24.1V69.6z M944.8,66.4c-15.6,0-29.9,5.2-41.6,15V69.6h-24.1v143.8h24.1v-81.3
						c0-23.4,18.9-41.6,41.6-41.6s41.6,18.9,41.6,41.6v81.3h24.1v-81.3C1010.5,95.6,981.2,66.4,944.8,66.4 M830.9,69H855v138.6
						c-0.7,41-33.8,74.2-74.8,74.8c-32.5,0.7-62.5-20.8-71.6-52.1h26c8.5,17.6,26,28.6,45.5,28c28-0.7,50.1-23.4,51.4-51.4v-11.7
						c-30.6,28-78.1,26.7-106.1-3.9c-28-30.6-26.7-78.1,3.9-106.1c28.6-26.7,73.5-26.7,102.2,0C831.6,85.2,830.9,69,830.9,69z
						 M830.9,141.2c0-28-22.8-51.4-50.8-51.4s-51.4,22.8-51.4,50.8s22.8,51.4,51.4,51.4C808.1,191.9,830.9,169.2,830.9,141.2
						 M460,89.8c19.5,0,37.7,11.7,46.2,29.3h25.4c-11.7-39.7-54-62.5-93.7-50.1c-39.7,11.7-62.5,54-50.1,93.7s54,62.5,93.7,50.1
						c24.1-7.2,42.9-26,50.1-50.1h-25.4c-11.7,25.4-42.3,36.4-67.7,24.7c-25.4-11.7-36.4-42.3-24.7-67.7
						C422.3,101.5,439.9,89.8,460,89.8 M693.6,141.2c0,41.6-33.8,74.8-74.8,74.8c-41.6,0-74.8-33.8-74.8-74.8s32.5-74.8,74.2-74.8
						S693.6,99.6,693.6,141.2 M669.5,141.2c0-28-22.8-51.4-50.8-51.4s-51.4,22.8-51.4,50.8s22.8,51.4,50.8,51.4
						C646.8,191.9,669.5,169.2,669.5,141.2 M1453.6,66.4c-15.6,0-29.9,5.2-41.6,15V69.6h-24.1v143.8h24.1v-81.3
						c0-23.4,18.9-42.3,41.6-42.3c23.4,0,42.3,18.9,42.3,41.6v81.3h24.1v-80.7C1519.3,95.6,1490,66.4,1453.6,66.4 M1339.7,69.6h24.1
						v143.8h-24.1v-16.9c-30.6,28-78.1,26.7-106.1-3.9s-26.7-78.1,3.9-106.1c13.7-13,31.9-20.2,50.8-20.2s37.1,7.2,51.4,20.2V69.6z
						 M1339.7,141.2c0-28-22.8-50.8-51.4-50.8c-28,0-50.8,22.8-50.8,51.4c0,28,22.8,50.8,50.8,50.8
						C1317,191.9,1339.7,169.2,1339.7,141.2 M1599.3,93V69h-35.8v-39h-24.1v135.3c0,26.7,21.5,48.1,48.1,48.1h11.7v-24.1h-11.7
						c-13,0-24.1-11.1-24.1-24.1V93H1599.3L1599.3,93z M1044.3,17.6c-9.1,0-15.6,7.2-15.6,15.6c0,9.1,7.2,15.6,15.6,15.6
						c9.1,0,15.6-7.2,15.6-15.6C1060.6,24.7,1053.4,17.6,1044.3,17.6C1045,17.6,1045,17.6,1044.3,17.6 M1200.5,69.6h-119.7v24.1
						h88.5l-88.5,95.6v24.1h119.7v-24.1h-89.1l88.5-95.6L1200.5,69.6L1200.5,69.6z"/>
				</g>
			</g>
		</g>
	</g>
	<g>
		<defs>
			<rect id="SVGID_5_" y="0" width="339" height="286.3"/>
		</defs>
		<clipPath id="SVGID_6_">
			<use xlink:href="#SVGID_5_"  style="overflow:visible;"/>
		</clipPath>
		<g class="st3">
			<g>
				<defs>
					<polygon id="SVGID_7_" points="0,143.1 99.6,286.3 202.4,224.5 144.4,143.1 					"/>
				</defs>
				<clipPath id="SVGID_8_">
					<use xlink:href="#SVGID_7_"  style="overflow:visible;"/>
				</clipPath>
				<g class="st4">
					
						<linearGradient id="SVGID_9_" gradientUnits="userSpaceOnUse" x1="-1948.2169" y1="1498.0833" x2="-1941.7115" y2="1498.0833" gradientTransform="matrix(31.1065 0 0 21.9795 60602.2109 -32712.3984)">
						<stop  offset="0" style="stop-color:#3D54CE"/>
						<stop  offset="1" style="stop-color:#35CACF"/>
					</linearGradient>
					<path class="st5" d="M0,143.1h202.4v143.1H0V143.1z"/>
				</g>
			</g>
			<g>
				<defs>
					<polygon id="SVGID_10_" points="99.6,286.3 241.4,286.3 339,143.1 					"/>
				</defs>
				<clipPath id="SVGID_11_">
					<use xlink:href="#SVGID_10_"  style="overflow:visible;"/>
				</clipPath>
				<g class="st6">
					
						<linearGradient id="SVGID_12_" gradientUnits="userSpaceOnUse" x1="-1956.0116" y1="1498.0833" x2="-1949.5049" y2="1498.0833" gradientTransform="matrix(36.8476 0 0 21.9795 72173.8828 -32712.3984)">
						<stop  offset="0" style="stop-color:#13457D"/>
						<stop  offset="1" style="stop-color:#279698"/>
					</linearGradient>
					<path class="st7" d="M99.6,143.1H339v143.1H99.6V143.1z"/>
				</g>
			</g>
			<g>
				<defs>
					<polygon id="SVGID_13_" points="99.6,0 0,143.1 144.4,143.1 202.4,61.8 					"/>
				</defs>
				<clipPath id="SVGID_14_">
					<use xlink:href="#SVGID_13_"  style="overflow:visible;"/>
				</clipPath>
				<g class="st8">
					
						<linearGradient id="SVGID_15_" gradientUnits="userSpaceOnUse" x1="-1948.2682" y1="1492.5707" x2="-1941.7615" y2="1492.5707" gradientTransform="matrix(31.1316 0 0 21.9796 60652.707 -32734.5332)">
						<stop  offset="0" style="stop-color:#090086"/>
						<stop  offset="1" style="stop-color:#2F96A9"/>
					</linearGradient>
					<path class="st9" d="M0,0h202.4v143.1H0V0z"/>
				</g>
			</g>
			<g>
				<defs>
					<polygon id="SVGID_16_" points="99.6,0 339,143.1 241.4,0 					"/>
				</defs>
				<clipPath id="SVGID_17_">
					<use xlink:href="#SVGID_16_"  style="overflow:visible;"/>
				</clipPath>
				<g class="st10">
					
						<linearGradient id="SVGID_18_" gradientUnits="userSpaceOnUse" x1="-1956.0116" y1="1492.5707" x2="-1949.5049" y2="1492.5707" gradientTransform="matrix(36.8476 0 0 21.9796 72173.8828 -32734.5332)">
						<stop  offset="0" style="stop-color:#3B62CA"/>
						<stop  offset="1" style="stop-color:#93DFE3"/>
					</linearGradient>
					<path class="st11" d="M99.6,0H339v143.1H99.6V0z"/>
				</g>
			</g>
		</g>
	</g>
</g>
</svg>
